<?xml version="1.0" encoding="UTF-8" standalone="no"?>
<svg
   xmlns:dc="http://purl.org/dc/elements/1.1/"
   xmlns:cc="http://creativecommons.org/ns#"
   xmlns:rdf="http://www.w3.org/1999/02/22-rdf-syntax-ns#"
   xmlns:svg="http://www.w3.org/2000/svg"
   xmlns="http://www.w3.org/2000/svg"
   xmlns:sodipodi="http://sodipodi.sourceforge.net/DTD/sodipodi-0.dtd"
   xmlns:inkscape="http://www.inkscape.org/namespaces/inkscape"
   width="210mm"
   height="297mm"
   viewBox="0 0 210 297"
   version="1.1"
   id="svg8"
   inkscape:version="1.0 (4035a4fb49, 2020-05-01)"
   sodipodi:docname="w&amp;f.svg">
  <defs
     id="defs2" />
  <sodipodi:namedview
     id="base"
     pagecolor="#ffffff"
     bordercolor="#666666"
     borderopacity="1.0"
     inkscape:pageopacity="0.0"
     inkscape:pageshadow="2"
     inkscape:zoom="45.254836"
     inkscape:cx="10.400099"
     inkscape:cy="1.4122217"
     inkscape:document-units="mm"
     inkscape:current-layer="layer1"
     inkscape:document-rotation="0"
     showgrid="false"
     inkscape:lockguides="false"
     inkscape:window-width="1920"
     inkscape:window-height="1001"
     inkscape:window-x="-9"
     inkscape:window-y="-9"
     inkscape:window-maximized="1" />
  <metadata
     id="metadata5">
    <rdf:RDF>
      <cc:Work
         rdf:about="">
        <dc:format>image/svg+xml</dc:format>
        <dc:type
           rdf:resource="http://purl.org/dc/dcmitype/StillImage" />
        <dc:title />
      </cc:Work>
    </rdf:RDF>
  </metadata>
  <g
     inkscape:label="Layer 1"
     inkscape:groupmode="layer"
     id="layer1">
    <path
       style="fill:#000000;stroke-width:0.0300413"
       d="m 1.4732202,4.2767581 c -0.126925,-0.02255 -0.343228,-0.07811 -0.48065999,-0.123485 -0.95278392,-0.314569 -1.43737792,-0.889875 -1.43606892,-1.704888 10e-4,-0.632095 0.237208,-1.2947514 0.771663,-1.80517734 0.268864,-0.256774 0.36446327,-0.28416693 0.84170621,-0.55896693 0.181751,-0.104649 0.2487659,-0.15893508 0.2552079,-0.16367908 0.0063,-0.004629 0.034685,-0.0198643 0.04319,-0.06060022 0.00913,-0.0437461 -0.00703,-0.11990997 -0.1698733,-0.33485148 -0.208448,-0.27517497 -0.45056095,-0.68318595 -0.45056095,-0.75929095 0,-0.0767 0.51899195,-1.195504 0.55456595,-1.195504 0.02435,0 0.0456,0.05505 0.05637,0.146015 0.03733,0.315196 0.292909,0.722647 0.888457,1.41640398 l 0.2720939,0.20188768 0.1494081,-0.16934714 c 0.2911932,-0.33005402 0.64125,-0.46084752 0.739692,-0.90332552 0.13373,-0.601096 -0.1515917,-0.8999028 -0.6136257,-1.1209918 -0.203598,-0.09742 -0.4576896,-0.1253439 -0.7318476,-0.068426 -0.220791,0.04584 -0.4825928,0.093544 -0.6531518,0.3085424 -0.24526,0.309168 -0.4031179,0.3757093 -2.07635381,4.4222663 -0.47646799,1.15229 -0.88085109,2.12225 -0.89862809,2.155467 -0.04511,0.08428 -0.2549569,0.08556 -0.2997689,0.0018 -0.01725,-0.03222 -0.327242,-0.819673 -0.688893,-1.749908 -0.36165,-0.9302371 -0.834689,-2.14554006 -1.051198,-2.70067405 -0.2165101,-0.55513395 -0.3660461,-0.92739885 -0.3667851,-0.95055985 -6.715e-4,-0.021275 0.023072,-0.089415 0,0 -0.00204,0.00792 5.642e-4,-0.00411 -0.00259,0.0053 -0.00459,0.013721 -9.954e-4,0.036513 0.00299,0.087577 0.00532,0.06815 -0.00315,0.1616923 -0.015028,0.2644689 -0.013268,0.1148445 -0.046834,0.23840724 -0.069813,0.37041424 -0.070932,0.40747629 -0.2395686,0.9469646 -0.4310225,1.51092063 C -4.6061758,1.442872 -4.8687175,2.2476842 -5.1201389,2.8116096 -5.2714277,3.1509426 -5.4346368,3.4711118 -5.5029487,3.6111792 l -0.1994035,0.4088588 -0.2443606,-0.00693 -0.149275,-0.009 -0.504846,-1.216674 c -1.601702,-3.860075 -2.136454,-5.142674 -2.216951,-5.31732 -0.224435,-0.486937 -0.409234,-0.618689 -0.99156,-0.706927 -0.116546,-0.01766 -0.127676,-0.02698 -0.127676,-0.106827 v -0.08748 h 1.727378 1.727377 v 0.08581 0.08581 l -0.274702,0.02074 c -0.151087,0.01141 -0.316902,0.03836 -0.368477,0.05992 -0.129659,0.05418 -0.281081,0.2355 -0.305539,0.365878 -0.04823,0.257121 -0.0083,0.370999 0.966618,2.75506394 0.525198,1.28434096 0.7680603,1.97350806 0.7797016,1.96096836 0.01778,-0.019152 0.1450535,-0.6711165 0.4510795,-1.60128686 0.3139441,-0.95423791 0.6642689,-1.85480804 0.6959707,-1.98703604 0.03247,-0.135472 0.1176152,-0.4177774 0.1177352,-0.4701294 2.72e-4,-0.128877 -0.014924,-0.566964 -0.169241,-0.742277 -0.163109,-0.185304 -0.37872,-0.287012 -0.701839,-0.331072 -0.255768,-0.03488 -0.26002,-0.03682 -0.26002,-0.118919 v -0.08347 h 1.802481 1.8024811 v 0.08741 c 0,0.08515 -0.0056,0.08834 -0.2178,0.12356 -0.26644,0.04424 -0.401435,0.09768 -0.514491,0.203688 -0.13164,0.12344 -0.197576,0.293616 -0.198332,0.511864 -6.26e-4,0.208871 -0.016201,0.2386225 1.135127,3.36354042 0.2891629,0.78483008 0.3706128,1.01858858 0.3770597,1.06874468 0.012882,0.1002212 9.329e-4,-0.2140353 0.2040178,-0.7178286 0.119114,-0.29547399 0.19344668,-0.6107284 0.51225568,-1.3955584 0.806619,-1.985706 1.29612638,-2.085685 1.22080238,-2.451152 -0.08077,-0.391862 -0.12443557,-0.5598131 -0.48862657,-0.6026161 -0.159653,-0.01876 -0.167449,-0.02369 -0.167449,-0.105671 l -0.01240234,-0.193477 1.47802045,0.021671 c 0.933539,0.013687 1.3983526,-0.041968 1.6895929,0.0106 0.2108814,0.038063 0.3248597,0.1245566 0.4882049,0.1865592 0.384599,0.1459861 0.686472,0.4493124 0.837288,0.7533084 0.06082,0.122584 0.07031,0.186251 0.07043,0.472141 1.19e-4,0.292963 -0.0087,0.3492 -0.07755,0.495682 -0.162724,0.346067 -0.390629,0.69836504 -1.127711,1.09782204 -0.301031,0.16314296 -0.3174462,0.2385441 -0.2865772,0.2783011 0.01984,0.02553 0.2849432,0.3748488 0.7558862,0.9177278 0.470943,0.54287996 0.888163,1.02681806 0.927155,1.07541706 l 0.0709,0.08837 -0.08004,0.184581 c -0.116274,0.268113 -0.402746,0.743824 -0.447922,0.743824 -0.02131,0 -0.56499,-0.593935 -1.208183,-1.319859 C 2.3504462,0.74160404 1.8397328,0.27540849 1.8229888,0.27432949 1.7637888,0.27052949 1.5926811,0.46032637 1.4296311,0.62905537 1.2200951,0.84589037 0.89795925,1.024087 0.79766529,1.33038 c -0.06512,0.1988641 -0.07924,0.2999381 -0.08183,0.5858061 -0.0038,0.421468 0.1735565,0.4787406 0.36395841,0.8749626 0.188963,0.393241 0.3164872,0.3809319 0.6712332,0.5547779 0.361925,0.177366 0.5252981,0.2443331 0.9225341,0.2266311 0.407247,-0.01815 0.5999633,-0.026042 0.8908036,-0.2193918 0.3313707,-0.2202939 0.6904688,-0.4275084 0.9392521,-0.75165 0.255775,-0.3332512 0.3986132,-0.787928 0.5469025,-1.3467099 0.1701084,-0.64100038 0.183147,-0.79611096 0.18303,-2.17752792 -6e-5,-0.71743998 -0.01336,-1.34597198 -0.031,-1.45700498 -0.08015,-0.506481 -0.381757,-0.790487 -0.907435,-0.85449 -0.16617,-0.02023 -0.172737,-0.02438 -0.172737,-0.10899 v -0.1965382 l 2.925982,-0.00835 2.9259841,-0.00835 0.01787,0.3280616 c 0.0098,0.111528 0.03288,0.518803 0.05122,0.905054 0.02776,0.584729 0.02654,0.70666 -0.0074,0.728465 -0.09136,0.05885 -0.1295451,0.0093 -0.1999411,-0.259384 -0.191375,-0.730418 -0.6698163,-0.7913416 -1.3838643,-0.9143546 -0.196812,-0.0339 -0.5245924,-0.035625 -1.1532861,-0.036356 l -0.7186079,-8.352e-4 -0.084774,1.2113928 0.00835,1.42103131 0.3896948,-0.0130678 c 0.6363632,-0.03423 0.8213782,0.0752935 1.0268422,-0.15212554 0.170149,-0.18833799 0.221472,-0.32693396 0.310856,-0.83949897 0.02046,-0.117342 0.03336,-0.135186 0.09773,-0.135186 H 8.40319 V 0.15877404 1.6308001 l -0.08278,0.0095 C 8.226668,1.6511201 8.235138,1.6695901 8.164887,1.300324 8.015281,0.51385804 7.6128341,0.37181145 6.7175419,0.36936445 l -0.2219761,0.0164646 v 0 c 0,0 -0.139602,1.01943895 -0.334847,1.49889005 -0.09938,0.244056 -0.339911,0.679234 -0.492473,0.891013 -0.04367,0.06061 -0.0341,0.07444 0.213435,0.308761 0.444535,0.420789 0.768048,0.604128 1.066023,0.604128 0.261288,0 0.480936,-0.164847 0.5988042,-0.449396 0.04099,-0.09897 0.08063,-0.112249 0.160477,-0.05379 0.04787,0.03504 0.04613,0.05292 -0.02621,0.267972 -0.20523,0.610206 -0.6381402,0.897654 -1.2903572,0.856782 -0.450758,-0.02825 -0.887578,-0.210217 -1.261981,-0.525717 -0.111572,-0.09401 -0.219166,-0.183003 -0.239092,-0.197737 -0.02378,-0.01758 -0.112821,0.01968 -0.258945,0.108329 -0.430632,0.261274 -0.920046,0.436956 -1.498858,0.538039 -0.451021,0.07877 -1.330035,0.10184 -1.658357,0.04353 z m 1.631029,-0.104319 c 0.573851,-0.09981 1.156798,-0.309941 1.540117,-0.555148 0.09355,-0.05984 0.191005,-0.108794 0.216575,-0.108794 0.02557,0 0.12685,0.07097 0.225075,0.157717 0.325292,0.287285 0.669606,0.462935 1.079128,0.550513 0.460327,0.09845 0.888752,-0.005 1.158897,-0.279695 0.1568012,-0.159467 0.4052912,-0.698907 0.3219492,-0.698907 -0.01526,0 -0.04955,0.04574 -0.0762,0.101644 -0.2407652,0.504887 -0.7785272,0.557221 -1.3436012,0.130755 -0.236972,-0.178843 -0.661868,-0.593094 -0.661868,-0.645283 0,-0.02426 0.0382,-0.09337 0.0849,-0.153578 0.421954,-0.54405 0.755158,-1.5297551 0.793561,-2.34754806 l 0.00418,0.0417609 0.3878968,-0.0224281 c 0.275812,0.002 0.441189,0.009698 0.562954,0.0462678 0.4556252,0.136778 0.7480073,0.34418942 0.8502983,0.94978536 0.02113,0.1251371 0.05455,0.2329031 0.07426,0.2394731 0.02741,0.0092 0.03584,-0.3204101 0.03584,-1.40250304 0,-0.77794596 -0.01111,-1.41444696 -0.02465,-1.41444696 -0.01353,0 -0.04015,0.09971 -0.05911,0.221556 -0.0739,0.475383 -0.2401676,0.70764785 -0.558419,0.84455484 -0.070765,0.0304419 -0.269907,0.0292679 -0.412463,0.0237411 -0.1223756,-0.004744 -0.2558321,0.001456 -0.3774792,0.00232 -0.084142,5.9704e-4 -0.1613638,0.0131666 -0.2435302,0.0100277 l -0.2194515,0.005416 -0.020328,-1.46618744 c -0.0062,-1.288351 0.062018,-1.232827 0.091846,-1.251739 0,0 0.1705055,0.00928 0.4821908,4.479e-4 0.3695563,-0.010471 0.8296603,0.00273 1.0855896,0.022274 0.2683124,0.020491 0.4459508,0.015145 0.729005,0.1030952 0.4528015,0.1034634 0.9492188,0.2492658 1.0924849,0.9172938 0.05104,0.237974 0.090477,0.174356 0.07204,-0.1162 -0.01977,-0.311428 -0.04417,-1.5186659 -0.1006565,-1.5266624 -0.7312666,-0.1035212 -0.4837026,-0.014703 -2.8438928,-0.014703 -1.577921,0 -2.868949,-0.016121 -2.868949,-0.016121 0,0 -0.021863,0.1018108 0.022698,0.1521176 0.037442,0.04227 0.1365135,0.033445 0.1899045,0.042257 0.39738,0.06563 0.673259,0.278862 0.815312,0.630185 0.06831,0.168961 0.0686,0.17583 0.0686,1.70175498 0,1.49504096 -0.0017,1.54010496 -0.07069,1.86256396 C 5.1100429,1.3692043 4.9307009,1.9007774 4.7406169,2.2961154 4.4620669,2.8754474 4.080894,2.990944 3.685941,3.28855 3.248868,3.617893 3.1375331,3.6435013 2.6314821,3.6435013 2.2722234,3.6435013 2.0037482,3.5137257 1.7521792,3.4001363 1.4549524,3.2659312 1.1677472,3.1207564 0.9917181,2.7561606 0.82246017,2.4055895 0.65758029,2.3497161 0.65792529,1.9614631 0.65834229,1.5642501 0.71773491,1.4253728 0.89006821,1.0719816 0.92100708,1.0085376 1.0243104,0.94369086 1.0626131,0.90139571 1.1486624,0.80637708 1.2281295,0.74003445 1.372333,0.5968392 1.5144297,0.45573595 1.6779664,0.27780359 1.7571944,0.23715159 l 0.054681,-0.0396761 0.14136,0.10928136 c 0.1260282,0.0974288 1.706769,1.81416725 2.14995,2.31561025 l 0.07965,0.09012 0.07138,-0.0862 c 0.0925,-0.111709 0.378828,-0.666266 0.378828,-0.733704 0,-0.02854 -0.244908,-0.335651 -0.544237,-0.6824601 -1.002172,-1.16113596 -1.2078101,-1.49380279 -1.2078101,-1.52305279 0,-0.01597 0.1548006,-0.13723984 0.4046356,-0.27452584 0.69567,-0.38228798 0.8852945,-0.70121427 1.0429365,-1.03741927 0.06911,-0.147383 0.07911,-0.207007 0.07881,-0.469246 -4.18e-4,-0.361238 -0.06127,-0.514429 -0.298908,-0.752421 -0.194989,-0.195284 -0.415533,-0.3897629 -0.752362,-0.4939729 l -0.270203,-0.116673 -0.5728991,-0.015421 -0.9982774,0.017603 c -0.95993731,0.016927 -1.57117633,-0.04489 -1.57117633,-0.027415 0,0.0088 -0.0115815,0.129358 0.03399662,0.1770121 0.03504088,0.036637 0.12246327,0.00313 0.1612243,0.00797 0.331154,0.04138 0.39492965,0.270563 0.46124565,0.641631 0.06294,0.352167 -0.21049736,0.5501349 -0.77346062,1.6086325 -0.10762608,0.2023612 -0.27503771,0.52830568 -0.4271432,0.90279925 -0.15475866,0.38102963 -0.31327959,0.86779315 -0.46212802,1.23443605 -0.3119507,0.7683956 -0.298279,1.074898 -0.320491,1.074898 -0.02246,0 0.060474,0.077504 -0.077618,-0.3019601 -0.129283,-0.355239 -0.266522,-0.859079 -0.372874,-1.14822696 -1.179048,-3.20557094 -1.10369,-2.98611594 -1.10369,-3.21414094 0,-0.123935 0.01942,-0.259055 0.04658,-0.324192 0.05415,-0.129824 0.202155,-0.292895 0.323497,-0.356429 0.06465,-0.03386 0.471408,-0.130785 0.548822,-0.130785 0.0068,0 0.01232,-0.01352 0.01232,-0.03004 0,-0.01968 -0.600826,-0.03004 -1.7423991,-0.03004 -1.606594,0 -2.047519,0.02052 -1.545601,0.07195 0.495682,0.05078 0.6873212,0.2151628 0.8342893,0.531907 0.188703,0.4066911 0.1208822,0.5240106 0.00634,0.9530731 -0.057587,0.2157203 -0.3981349,1.25248342 -0.7011581,2.16146496 -0.3179782,0.95384244 -0.4943157,1.57610134 -0.5176607,1.60075554 -0.0347,0.03665 -0.021772,0.069557 -0.045952,0.00717 -0.01552,-0.04005 -0.2454823,-0.6098218 -0.7207333,-1.76641376 -1.110254,-2.70196694 -1.071426,-2.59943794 -1.075986,-2.84120894 -0.0032,-0.170871 0.0086,-0.217336 0.08667,-0.343831 0.125378,-0.20286 0.28604,-0.281366 0.624755,-0.305269 0.143658,-0.01006 0.261197,-0.02994 0.261197,-0.04401 0,-0.01412 -0.750282,-0.02558 -1.667294,-0.02558 -0.917013,0 -1.667295,0.01172 -1.667295,0.02593 0,0.01427 0.104769,0.04278 0.23282,0.0634 0.427754,0.06885 0.64958,0.241996 0.860282,0.671456 0.07438,0.151608 0.305728,0.687969 0.514099,1.191913 0.208373,0.50394298 0.614582,1.48404194 0.902689,2.17799794 0.288105,0.69395506 0.703181,1.69433206 0.922388,2.22305906 0.395442,0.953801 0.399289,0.961394 0.491612,0.970417 0.053308,0.00522 0.1608075,0.057542 0.2247177,3.225e-4 0.035012,-0.031347 0.054621,-0.085982 0.099639,-0.2115835 0.012194,-0.034021 0.038255,-0.076775 0.059228,-0.1206146 0.029337,-0.061321 0.054432,-0.1009717 0.079403,-0.1582286 0.023444,-0.053756 0.037531,-0.1095403 0.092424,-0.1985739 0.2498771,-0.4052845 0.3844605,-0.8310223 0.5837793,-1.3720259 0.082325,-0.2234527 0.1960728,-0.5579089 0.2776746,-0.7806178 0.1219789,-0.33290718 0.2301954,-0.66998109 0.2937022,-0.97498206 0.013977,-0.06712791 0.039234,-0.13427389 0.051671,-0.1950894 0.017904,-0.08754949 0.039379,-0.17063419 0.058932,-0.25523187 0.015198,-0.0657531 0.029728,-0.13295703 0.043359,-0.19299324 0.066464,-0.29273961 0.1332287,-0.53704543 0.1298562,-0.65663643 -5.149e-4,-0.01826 0.00108,-0.043596 0.00485,-0.058851 0.00632,-0.025628 0.00861,-0.052156 0.011767,-0.080243 0.00629,-0.055904 0.00725,-0.080839 0.019127,-0.126169 0.028542,-0.1088931 0.048671,-0.070232 0.061565,-0.072965 0.027649,-0.00586 0.098126,0.1731004 0.3511001,0.82547138 0.385759,0.99480196 0.525683,1.35401096 0.927801,2.38183702 0.132513,0.338716 0.303798,0.778071 0.380625,0.976344 0.509973,1.316104 0.493615,1.280993 0.592135,1.270919 0.08725,-0.0089 0.0983,-0.02962 0.3893629,-0.730175 0.1647621,-0.396546 0.56078109,-1.349607 0.88004309,-2.1179151 0.319262,-0.76830696 0.725276,-1.74840692 0.902251,-2.1779979 0.58025591,-1.408514 0.72243701,-1.4737985 1.08809901,-1.7179775 0.22371,-0.149381 0.4827044,-0.2029293 0.8615344,-0.1864483 0.241397,0.01051 0.3237303,0.042977 0.4710093,0.1160765 0.225908,0.112144 0.4209943,0.2520082 0.5068373,0.4788172 0.183594,0.48509 0.075352,1.0112893 -0.4675208,1.3372284 -0.065186,0.0852124 -0.1960336,0.20996979 -0.2804222,0.30165191 -0.063786,0.0692988 -0.086851,0.11970089 -0.1154882,0.11984596 -0.04551,2.5e-4 -0.5204339,-0.41850417 -0.8070459,-0.80361917 -0.251347,-0.337728 -0.32865,-0.475188 -0.398549,-0.708692 l -0.04846,-0.161867 -0.236573,0.532008 -0.23657695,0.53201 0.05236,0.110522 c 0.10111895,0.21341498 0.26976905,0.46875827 0.50267695,0.76111694 0.064075,0.0804307 0.061454,0.0983668 0.065082,0.11797641 0.00369,0.0199657 0.012995,0.0415148 0.00717,0.11538003 -0.0099,0.12565986 -0.3548432,0.27538316 -0.520097,0.3567129 C 0.68225807,0.40907695 0.43469272,0.59132774 0.28066791,0.76547595 0.15731644,0.90494334 0.06985321,1.0585967 -0.01138793,1.1925191 -0.12961337,1.3874085 -0.19832598,1.5551154 -0.28943523,1.80476 c -0.28469403,0.780078 -0.0642135,1.4658541 0.55503452,1.9312981 0.270889,0.203605 0.74541691,0.386724 1.24306591,0.479694 0.314621,0.05878 1.137345,0.03652 1.595515,-0.04318 z"
       id="path24"
       sodipodi:nodetypes="cccsscscsscscssscssscsscsssssssscccsscscccccccscssccssscccscccssssssscssssscscsscssscssccsssssscsscccccccssccccssscccccccscscscsccsccscccsscssscsscccccscsscsssccccsscscsscscsscssssscsssccsscsssscssscccssscssssscssccssscsssccscccssscsssscsssssssssssssssssscccsscccscscssccccssscssssscc" />
  </g>
</svg>
