<?xml version="1.0" encoding="UTF-8" standalone="no"?>
<svg
   xmlns:dc="http://purl.org/dc/elements/1.1/"
   xmlns:cc="http://creativecommons.org/ns#"
   xmlns:rdf="http://www.w3.org/1999/02/22-rdf-syntax-ns#"
   xmlns:svg="http://www.w3.org/2000/svg"
   xmlns="http://www.w3.org/2000/svg"
   xmlns:sodipodi="http://sodipodi.sourceforge.net/DTD/sodipodi-0.dtd"
   xmlns:inkscape="http://www.inkscape.org/namespaces/inkscape"
   width="210mm"
   height="297mm"
   viewBox="0 0 210 297"
   version="1.1"
   id="svg8"
   inkscape:version="1.0 (4035a4fb49, 2020-05-01)"
   sodipodi:docname="w&amp;f.svg">
  <defs
     id="defs2" />
  <sodipodi:namedview
     id="base"
     pagecolor="#ffffff"
     bordercolor="#666666"
     borderopacity="1.0"
     inkscape:pageopacity="0.0"
     inkscape:pageshadow="2"
     inkscape:zoom="11.313709"
     inkscape:cx="9.5706317"
     inkscape:cy="3.8875167"
     inkscape:document-units="mm"
     inkscape:current-layer="layer1"
     inkscape:document-rotation="0"
     showgrid="false"
     inkscape:lockguides="false"
     inkscape:window-width="1920"
     inkscape:window-height="1001"
     inkscape:window-x="-9"
     inkscape:window-y="-9"
     inkscape:window-maximized="1" />
  <metadata
     id="metadata5">
    <rdf:RDF>
      <cc:Work
         rdf:about="">
        <dc:format>image/svg+xml</dc:format>
        <dc:type
           rdf:resource="http://purl.org/dc/dcmitype/StillImage" />
        <dc:title />
      </cc:Work>
    </rdf:RDF>
  </metadata>
  <g
     inkscape:label="Layer 1"
     inkscape:groupmode="layer"
     id="layer1">
    <path
       style="fill:#000000;stroke-width:0.0300413"
       d="m 1.4732202,4.2767581 c -0.126925,-0.02255 -0.343228,-0.07811 -0.48065999,-0.123485 -0.95278392,-0.314569 -1.43737792,-0.889875 -1.43606892,-1.704888 10e-4,-0.632095 0.237208,-1.2947514 0.771663,-1.80517734 0.268864,-0.256774 0.36446327,-0.28416693 0.84170621,-0.55896693 0.181751,-0.104649 0.2487659,-0.15893508 0.2552079,-0.16367908 0.0063,-0.004629 0.034685,-0.0198643 0.04319,-0.06060022 0.00913,-0.0437461 -0.00703,-0.11990997 -0.1698733,-0.33485148 -0.208448,-0.27517497 -0.45056095,-0.68318595 -0.45056095,-0.75929095 0,-0.0767 0.51899195,-1.195504 0.55456595,-1.195504 0.02435,0 0.0456,0.05505 0.05637,0.146015 0.03733,0.315196 0.292909,0.722647 0.888457,1.41640398 l 0.276228,0.321777 0.182481,-0.128006 c 0.360336,-0.252759 0.604043,-0.62207798 0.702485,-1.06455598 0.13373,-0.601096 -0.08958,-1.160352 -0.551614,-1.381441 -0.203598,-0.09742 -0.581713,-0.129478 -0.855871,-0.07256 -0.220791,0.04584 -0.490861,0.225836 -0.66142,0.440834 -0.24526,0.309168 -0.332838,0.508001 -2.00607391,4.554558 -0.47646799,1.15229 -0.88085109,2.12225 -0.89862809,2.155467 -0.04511,0.08428 -0.2549569,0.08556 -0.2997689,0.0018 -0.01725,-0.03222 -0.327242,-0.819673 -0.688893,-1.749908 -0.36165,-0.9302371 -0.834689,-2.14554006 -1.051198,-2.70067405 -0.2165101,-0.55513395 -0.3942601,-1.02828595 -0.3949991,-1.05144695 -6.715e-4,-0.021275 0.051286,0.011472 0.028214,0.1008871 -0.00204,0.00792 5.642e-4,-0.00411 -0.00259,0.0053 -0.00459,0.013721 -9.954e-4,0.036513 0.00299,0.087577 0.00532,0.06815 -0.00315,0.1616923 -0.015028,0.2644689 -0.013268,0.1148445 -0.046834,0.23840724 -0.069813,0.37041424 -0.070932,0.40747629 -0.2395686,0.9469646 -0.4310225,1.51092063 C -4.6061758,1.442872 -4.8687175,2.2476842 -5.1201389,2.8116096 -5.2714277,3.1509426 -5.4346368,3.4711118 -5.5029487,3.6111792 l -0.1994035,0.4088588 -0.2443606,-0.00693 -0.149275,-0.009 -0.504846,-1.216674 c -1.601702,-3.860075 -2.136454,-5.142674 -2.216951,-5.31732 -0.224435,-0.486937 -0.409234,-0.618689 -0.99156,-0.706927 -0.116546,-0.01766 -0.127676,-0.02698 -0.127676,-0.106827 v -0.08748 h 1.727378 1.727377 v 0.08581 0.08581 l -0.274702,0.02074 c -0.151087,0.01141 -0.316902,0.03836 -0.368477,0.05992 -0.129659,0.05418 -0.281081,0.2355 -0.305539,0.365878 -0.04823,0.257121 -0.0083,0.370999 0.966618,2.75506394 0.525198,1.28434096 0.964431,2.32490806 0.976072,2.31236806 0.03602,-0.0388 1.227174,-3.661062 1.289778,-3.922183 0.03247,-0.135472 0.05915,-0.289154 0.05927,-0.341506 2.72e-4,-0.128877 -0.295557,-0.713127 -0.449874,-0.88844 -0.163109,-0.185304 -0.37872,-0.287012 -0.701839,-0.331072 -0.255768,-0.03488 -0.26002,-0.03682 -0.26002,-0.118919 v -0.08347 h 1.802481 1.8024811 v 0.08741 c 0,0.08515 -0.0056,0.08834 -0.2178,0.12356 -0.26644,0.04424 -0.401435,0.09768 -0.514491,0.203688 -0.13164,0.12344 -0.197576,0.293616 -0.198332,0.511864 -6.26e-4,0.208871 0.01157,0.244469 1.162898,3.36938694 0.2891629,0.78483006 0.5396429,1.46593506 0.556625,1.51356706 0.02896,0.08122 -0.020369,-0.00738 0.18271661,-0.5111733 0.11911404,-0.295474 0.40015244,-1.16056562 0.71896144,-1.94539562 0.806619,-1.98570598 1.02740894,-2.19730608 0.95208494,-2.56277308 -0.08077,-0.391862 -0.248459,-0.555679 -0.61265,-0.598482 -0.159653,-0.01876 -0.167449,-0.02369 -0.167449,-0.105671 v -0.08599 l 1.49455691,10e-4 c 1.609669,0.0011 1.759924,0.01232 2.148859,0.159952 0.384599,0.145986 0.686472,0.399703 0.837288,0.703699 0.06082,0.122584 0.07031,0.186251 0.07043,0.472141 1.19e-4,0.292963 -0.0087,0.3492 -0.07755,0.495682 -0.162724,0.346067 -0.498116,0.62395098 -1.235198,1.02340798 -0.301031,0.16314296 -0.346385,0.19720296 -0.315516,0.23695996 0.01984,0.02553 0.421369,0.490604 0.892312,1.033483 0.470943,0.54287996 0.888163,1.02681806 0.927155,1.07541706 l 0.0709,0.08837 -0.08004,0.184581 c -0.116274,0.268113 -0.402746,0.743824 -0.447922,0.743824 -0.02131,0 -0.56499,-0.593935 -1.208183,-1.319859 C 2.3504462,0.74160404 1.8105002,0.14678504 1.7937562,0.14570604 1.7345562,0.14190604 1.5400624,0.42524725 1.3770124,0.59397625 1.1674764,0.81081125 0.89795925,1.024087 0.79766529,1.33038 c -0.06512,0.1988641 -0.07924,0.2999381 -0.08183,0.5858061 -0.0038,0.421468 0.03324,0.583978 0.22364196,0.9802 0.18896295,0.393241 0.40418495,0.617716 0.75893095,0.791562 0.361925,0.177366 0.569147,0.220947 0.966383,0.203245 0.407247,-0.01815 0.626271,-0.08451 0.917113,-0.277857 0.672054,-0.446779 1.17609,-1.256241 1.468615,-2.3585301 0.17011,-0.64099996 0.183147,-0.79611096 0.18303,-2.17752792 -6e-5,-0.71743998 -0.01336,-1.34597198 -0.031,-1.45700498 -0.08015,-0.506481 -0.381757,-0.790487 -0.907435,-0.85449 -0.16617,-0.02023 -0.172737,-0.02438 -0.172737,-0.10899 v -0.1965382 l 2.925982,-0.00835 2.9259841,-0.00835 0.01787,0.3280616 c 0.0098,0.111528 0.03288,0.518803 0.05122,0.905054 0.02776,0.584729 0.02654,0.70666 -0.0074,0.728465 -0.09136,0.05885 -0.1295478,0.0093 -0.1999438,-0.259384 -0.191375,-0.730418 -0.6552,-1.0924374 -1.369248,-1.2154504 -0.196812,-0.0339 -0.5080004,-0.038712 -1.1357465,-0.0042 l -0.8355383,0.045937 v 1.4335606 l 0.00835,1.42103131 0.3896948,-0.0130678 c 0.6363632,-0.03423 0.8213782,0.0752935 1.0268422,-0.15212554 0.170149,-0.18833799 0.221472,-0.32693396 0.310856,-0.83949897 0.02046,-0.117342 0.03336,-0.135186 0.09773,-0.135186 h 0.07416 V 0.15877404 1.6308001 l -0.08278,0.0095 C 8.226668,1.6511201 8.235138,1.6695901 8.164887,1.300324 8.015281,0.51385804 7.6128341,0.37181145 6.7175419,0.36936445 l -0.2219761,0.0164646 v 0 c 0,0 -0.139602,1.01943895 -0.334847,1.49889005 -0.09938,0.244056 -0.339911,0.679234 -0.492473,0.891013 -0.04367,0.06061 -0.0341,0.07444 0.213435,0.308761 0.444535,0.420789 0.768048,0.604128 1.066023,0.604128 0.261288,0 0.480936,-0.164847 0.5988042,-0.449396 0.04099,-0.09897 0.08063,-0.112249 0.160477,-0.05379 0.04787,0.03504 0.04613,0.05292 -0.02621,0.267972 -0.20523,0.610206 -0.6381402,0.897654 -1.2903572,0.856782 -0.450758,-0.02825 -0.887578,-0.210217 -1.261981,-0.525717 -0.111572,-0.09401 -0.219166,-0.183003 -0.239092,-0.197737 -0.02378,-0.01758 -0.112821,0.01968 -0.258945,0.108329 -0.430632,0.261274 -0.920046,0.436956 -1.498858,0.538039 -0.451021,0.07877 -1.330035,0.10184 -1.658357,0.04353 z m 1.631029,-0.104319 c 0.573851,-0.09981 1.156798,-0.309941 1.540117,-0.555148 0.09355,-0.05984 0.191005,-0.108794 0.216575,-0.108794 0.02557,0 0.12685,0.07097 0.225075,0.157717 0.325292,0.287285 0.669606,0.462935 1.079128,0.550513 0.460327,0.09845 0.888752,-0.005 1.158897,-0.279695 0.1568012,-0.159467 0.4052912,-0.698907 0.3219492,-0.698907 -0.01526,0 -0.04955,0.04574 -0.0762,0.101644 -0.2407652,0.504887 -0.7785272,0.557221 -1.3436012,0.130755 -0.236972,-0.178843 -0.661868,-0.593094 -0.661868,-0.645283 0,-0.02426 0.0382,-0.09337 0.0849,-0.153578 0.421954,-0.54405 0.755158,-1.5297551 0.793561,-2.34754806 l 0.00418,0.0417609 0.3878968,-0.0224281 c 0.275812,0.002 0.441189,0.009698 0.562954,0.0462678 0.4556252,0.136778 0.7480073,0.34418942 0.8502983,0.94978536 0.02113,0.1251371 0.05455,0.2329031 0.07426,0.2394731 0.02741,0.0092 0.03584,-0.3204101 0.03584,-1.40250304 0,-0.77794596 -0.01111,-1.41444696 -0.02465,-1.41444696 -0.01353,0 -0.04015,0.09971 -0.05911,0.221556 -0.0739,0.475383 -0.2401676,0.70764785 -0.558419,0.84455484 -0.070765,0.0304419 -0.269907,0.0292679 -0.412463,0.0237411 -0.1223756,-0.004744 -0.2558321,0.001456 -0.3774792,0.00232 -0.084142,5.9704e-4 -0.1613638,0.0131666 -0.2435302,0.0100277 l -0.2194515,0.005416 -0.020328,-1.46618744 c -0.0062,-1.288351 -0.00814,-1.4608413 0.021688,-1.4797533 0,0 0.2728196,-0.022877 0.5845049,-0.031708 0.3695563,-0.010471 0.826737,-0.061583 1.0826663,-0.042038 0.2683124,0.020491 0.4401043,0.050224 0.5974583,0.1001719 0.593118,0.188238 1.0515329,0.576671 1.194799,1.244699 0.05104,0.237974 0.090477,0.174356 0.07204,-0.1162 -0.01977,-0.311428 -0.04417,-1.5186659 -0.1006565,-1.5266624 -0.7312666,-0.1035212 -0.4837026,-0.014703 -2.8438928,-0.014703 -1.577921,0 -2.868949,-0.016121 -2.868949,-0.016121 0,0 -0.021863,0.1018108 0.022698,0.1521176 0.037442,0.04227 0.1365135,0.033445 0.1899045,0.042257 0.39738,0.06563 0.673259,0.278862 0.815312,0.630185 0.06831,0.168961 0.0686,0.17583 0.0686,1.70175498 0,1.49504096 -0.0017,1.54010496 -0.07069,1.86256396 -0.09822,0.45918796 -0.277562,0.99076106 -0.467646,1.38609906 -0.27855,0.579332 -0.560332,0.946229 -0.955285,1.243835 -0.437073,0.329343 -0.694571,0.419263 -1.200622,0.419263 -0.78372,0 -1.381981,-0.363242 -1.70699895,-1.036427 C 0.70844929,2.5722171 0.65758029,2.3497161 0.65792529,1.9614631 0.65834229,1.5642501 0.73527447,1.3552146 0.90760777,1.0018234 0.93854664,0.93837934 0.9892313,0.90276522 1.027534,0.86047007 1.1135833,0.76545144 1.2047434,0.68741576 1.3489469,0.54422051 1.4910436,0.40311726 1.6136547,0.1959523 1.6928827,0.1553003 l 0.1189925,-0.08644826 0.14136,0.150207 c 0.109171,0.116005 1.706769,1.90186506 2.14995,2.40330806 l 0.07965,0.09012 0.07138,-0.0862 c 0.0925,-0.111709 0.378828,-0.666266 0.378828,-0.733704 0,-0.02854 -0.244908,-0.335651 -0.544237,-0.6824601 -1.002172,-1.16113596 -1.34837,-1.57235096 -1.34837,-1.60160096 0,-0.01597 0.20441,-0.14137396 0.454245,-0.27865996 0.69567,-0.38228798 0.976245,-0.61853198 1.133887,-0.95473698 0.06911,-0.147383 0.07911,-0.207007 0.07881,-0.469246 -4.18e-4,-0.361238 -0.06127,-0.514429 -0.298908,-0.752421 -0.194989,-0.195284 -0.415533,-0.319483 -0.752362,-0.423693 l -0.270203,-0.0836 -1.55464,-0.01022 c -0.96006591,-0.0063 -1.55463991,5.85e-4 -1.55463991,0.01806 0,0.01556 0.07297,0.03742 0.162148,0.04856 0.331154,0.04138 0.552026,0.270563 0.618342,0.641631 0.06294,0.352167 -0.15411772,0.6771545 -0.59155959,1.75332646 C 0.08066507,-0.69363387 -0.03920207,-0.37417172 -0.19130756,3.2184807e-4 -0.34606622,0.38134768 -0.52525771,0.79369714 -0.67410613,1.16034 -0.98605681,1.9287356 -1.124423,2.4383112 -1.146635,2.4383112 c -0.02246,0 -0.1205548,-0.1724631 -0.2586448,-0.5519271 -0.129283,-0.355239 -0.3220639,-0.8824651 -0.4284159,-1.17161306 -1.179048,-3.20557094 -1.10369,-2.98611594 -1.10369,-3.21414094 0,-0.123935 0.01942,-0.259055 0.04658,-0.324192 0.05415,-0.129824 0.202155,-0.292895 0.323497,-0.356429 0.06465,-0.03386 0.471408,-0.130785 0.548822,-0.130785 0.0068,0 0.01232,-0.01352 0.01232,-0.03004 0,-0.01968 -0.600826,-0.03004 -1.7423991,-0.03004 -1.606594,0 -2.047519,0.02052 -1.545601,0.07195 0.495682,0.05078 0.763326,0.261935 1.044764,0.824233 0.200667,0.400923 0.208586,0.47724 0.09404,0.906301 -0.118017,0.442087 -1.277096,3.915002 -1.322688,3.963151 -0.0347,0.03665 -0.04451,0.03235 -0.06869,-0.03004 -0.01552,-0.04005 -0.417048,-1.0190991 -0.892299,-2.17569106 -1.110254,-2.70196694 -1.071426,-2.59943794 -1.075986,-2.84120894 -0.0032,-0.170871 0.0086,-0.217336 0.08667,-0.343831 0.125378,-0.20286 0.28604,-0.281366 0.624755,-0.305269 0.143658,-0.01006 0.261197,-0.02994 0.261197,-0.04401 0,-0.01412 -0.750282,-0.02558 -1.667294,-0.02558 -0.917013,0 -1.667295,0.01172 -1.667295,0.02593 0,0.01427 0.104769,0.04278 0.23282,0.0634 0.427754,0.06885 0.64958,0.241996 0.860282,0.671456 0.07438,0.151608 0.305728,0.687969 0.514099,1.191913 0.208373,0.50394298 0.614582,1.48404194 0.902689,2.17799794 0.288105,0.69395506 0.703181,1.69433206 0.922388,2.22305906 0.395442,0.953801 0.399289,0.961394 0.491612,0.970417 0.053308,0.00522 0.1608075,0.057542 0.2247177,3.225e-4 0.035012,-0.031347 0.054621,-0.085982 0.099639,-0.2115835 0.012194,-0.034021 0.038255,-0.076775 0.059228,-0.1206146 0.029337,-0.061321 0.054432,-0.1009717 0.079403,-0.1582286 0.023444,-0.053756 0.037531,-0.1095403 0.092424,-0.1985739 0.2498771,-0.4052845 0.3844605,-0.8310223 0.5837793,-1.3720259 0.082325,-0.2234527 0.1960728,-0.5579089 0.2776746,-0.7806178 0.1219789,-0.33290718 0.2301954,-0.66998109 0.2937022,-0.97498206 0.013977,-0.06712791 0.039234,-0.13427389 0.051671,-0.1950894 0.017904,-0.08754949 0.039379,-0.17063419 0.058932,-0.25523187 0.015198,-0.0657531 0.029728,-0.13295703 0.043359,-0.19299324 0.066464,-0.29273961 0.1332287,-0.53704543 0.1298562,-0.65663643 -5.149e-4,-0.01826 0.00108,-0.043596 0.00485,-0.058851 0.00632,-0.025628 0.00861,-0.052156 0.011767,-0.080243 0.00629,-0.055904 0.00725,-0.080839 0.019127,-0.126169 0.028542,-0.1088931 0.017977,-0.1228503 0.030871,-0.1255836 0.027649,-0.00586 0.1288202,0.2257191 0.3817943,0.87809008 0.385759,0.99480196 0.525683,1.35401096 0.927801,2.38183702 0.132513,0.338716 0.303798,0.778071 0.380625,0.976344 0.509973,1.316104 0.493615,1.280993 0.592135,1.270919 0.08725,-0.0089 0.0983,-0.02962 0.3893629,-0.730175 0.1647621,-0.396546 0.56078109,-1.349607 0.88004309,-2.1179151 0.319262,-0.76830696 0.725276,-1.74840692 0.902251,-2.1779979 0.58025591,-1.408514 0.79271691,-1.779723 1.15837891,-2.023902 0.22371,-0.149381 0.428961,-0.194661 0.807791,-0.17818 0.241397,0.01051 0.315462,0.02644 0.462741,0.09954 0.225908,0.112144 0.445799,0.351227 0.531642,0.578036 0.183594,0.48509 0.06295,1.147715 -0.293888,1.61421398 -0.114458,0.149621 -0.531958,0.49557497 -0.598482,0.49591197 -0.04551,2.5e-4 -0.524568,-0.55492995 -0.81118,-0.94004495 -0.251347,-0.337728 -0.32865,-0.475188 -0.398549,-0.708692 l -0.04846,-0.161867 -0.236573,0.532008 -0.23657695,0.53201 0.05236,0.110522 c 0.10111895,0.21341498 0.26976905,0.46875827 0.50267695,0.76111694 0.064075,0.0804307 0.061454,0.0983668 0.065082,0.11797641 0.00369,0.0199657 0.012995,0.0415148 0.00717,0.11538003 -0.0099,0.12565986 -0.3548432,0.27538316 -0.520097,0.3567129 C 0.68225807,0.40907695 0.43469272,0.59132774 0.28066791,0.76547595 0.15731644,0.90494334 0.06985321,1.0585967 -0.01138793,1.1925191 -0.12961337,1.3874085 -0.19832598,1.5551154 -0.28943523,1.80476 c -0.28469403,0.780078 -0.0642135,1.4658541 0.55503452,1.9312981 0.270889,0.203605 0.74541691,0.386724 1.24306591,0.479694 0.314621,0.05878 1.137345,0.03652 1.595515,-0.04318 z"
       id="path24"
       sodipodi:nodetypes="cccsscscsscscssscssscsscsssssssscccsscscccccccscsccssscccscccssssssscsssscscsscssscssccssssscsscccccccssccccssscccccccscscscsccsccscccsscssscsscccccscsscsssccccsscscsscscsscsssscsssccsscsssscsssccsscssssscssccssscssccscccssscsssscsssssssssssssssssscccsscccsccssccccssscssssscc" />
  </g>
</svg>
